<svg width="10" height="20" viewBox="0 0 10 20" fill="none" xmlns="http://www.w3.org/2000/svg">
<path d="M6.0791 0C7.04625 0 7.79153 0.218609 8.31348 0.65625C8.85071 1.0788 9.2113 1.6831 9.39551 2.46777C9.57966 3.23733 9.67187 4.22561 9.67188 5.43262C9.67188 6.53427 9.52605 7.39494 9.23438 8.01367C8.94273 8.6322 8.43609 9.06225 7.71484 9.30371C8.31332 9.42449 8.74299 9.71881 9.00391 10.1865C9.28022 10.6543 9.41796 11.2881 9.41797 12.0879L9.37207 19.4453H5.50391V11.8389C5.50389 11.2958 5.39639 10.9488 5.18164 10.7979C4.96672 10.6469 4.57484 10.5713 4.00684 10.5713V16.9688H0V0H6.0791ZM4.03027 7.19824H4.97461C5.52696 7.19792 5.80273 6.6094 5.80273 5.43262C5.80273 4.91964 5.78042 4.53484 5.73438 4.27832C5.68832 4.02177 5.60328 3.84836 5.48047 3.75781C5.35767 3.65224 5.18136 3.59962 4.95117 3.59961H4.03027V7.19824Z" fill="white"/>
</svg>
